<svg width="800" height="400" viewBox="0 0 800 400" fill="none" xmlns="http://www.w3.org/2000/svg">
  <!-- Background -->
  <rect width="800" height="400" fill="#0F172A" />
  
  <!-- Grid lines -->
  <g opacity="0.1" stroke="#64748B" stroke-width="0.5">
    <!-- Longitude lines -->
    <path d="M100,0 L100,400" />
    <path d="M200,0 L200,400" />
    <path d="M300,0 L300,400" />
    <path d="M400,0 L400,400" />
    <path d="M500,0 L500,400" />
    <path d="M600,0 L600,400" />
    <path d="M700,0 L700,400" />
    
    <!-- Latitude lines -->
    <path d="M0,100 L800,100" />
    <path d="M0,200 L800,200" />
    <path d="M0,300 L800,300" />
  </g>
  
  <!-- Continents with more detailed paths -->
  
  <!-- North America -->
  <path d="M60,40 C60,40 70,35 80,38 C90,41 95,50 105,55 C115,60 125,65 130,75 C135,85 140,95 145,105 
           C150,115 155,125 160,130 C165,135 170,140 175,145 C180,150 185,155 190,160 
           C195,165 200,170 195,175 C190,180 185,185 180,190 C175,195 170,200 165,195 
           C160,190 155,185 150,180 C145,175 140,170 135,165 C130,160 125,155 120,150 
           C115,145 110,140 105,135 C100,130 95,125 90,120 C85,115 80,110 75,105 
           C70,100 65,95 60,90 C55,85 50,80 45,75 C40,70 35,65 40,60 C45,55 50,50 55,45 C60,40 60,40 60,40z" 
        fill="#1E293B" stroke="#334155" stroke-width="1.5" stroke-linejoin="round" />
  
  <!-- Central America -->
  <path d="M165,195 C165,195 170,200 175,205 C180,210 185,215 190,220 C195,225 200,230 205,235 
           C210,240 215,245 220,250 C225,255 230,260 225,265 C220,270 215,275 210,280 
           C205,285 200,290 195,285 C190,280 185,275 180,270 C175,265 170,260 165,255 
           C160,250 155,245 150,240 C145,235 140,230 145,225 C150,220 155,215 160,210 C165,205 165,195 165,195z" 
        fill="#1E293B" stroke="#334155" stroke-width="1.5" stroke-linejoin="round" />
  
  <!-- South America -->
  <path d="M210,280 C210,280 215,285 220,290 C225,295 230,300 235,305 C240,310 245,315 250,320 
           C255,325 260,330 265,335 C270,340 275,345 280,350 C285,355 290,360 295,365 
           C300,370 305,375 300,380 C295,385 290,390 285,385 C280,380 275,375 270,370 
           C265,365 260,360 255,355 C250,350 245,345 240,340 C235,335 230,330 225,325 
           C220,320 215,315 210,310 C205,305 200,300 195,295 C190,290 185,285 190,280 
           C195,275 200,270 205,275 C210,280 210,280 210,280z" 
        fill="#1E293B" stroke="#334155" stroke-width="1.5" stroke-linejoin="round" />
  
  <!-- Europe -->
  <path d="M380,60 C380,60 385,55 390,50 C395,45 400,40 405,45 C410,50 415,55 420,60 
           C425,65 430,70 435,75 C440,80 445,85 450,90 C455,95 460,100 465,105 
           C470,110 475,115 480,120 C485,125 490,130 485,135 C480,140 475,145 470,140 
           C465,135 460,130 455,125 C450,120 445,115 440,110 C435,105 430,100 425,95 
           C420,90 415,85 410,80 C405,75 400,70 395,65 C390,60 385,55 380,60z" 
        fill="#1E293B" stroke="#334155" stroke-width="1.5" stroke-linejoin="round" />
  
  <!-- Africa -->
  <path d="M410,140 C410,140 415,145 420,150 C425,155 430,160 435,165 C440,170 445,175 450,180 
           C455,185 460,190 465,195 C470,200 475,205 480,210 C485,215 490,220 495,225 
           C500,230 505,235 510,240 C515,245 520,250 525,255 C530,260 535,265 530,270 
           C525,275 520,280 515,275 C510,270 505,265 500,260 C495,255 490,250 485,245 
           C480,240 475,235 470,230 C465,225 460,220 455,215 C450,210 445,205 440,200 
           C435,195 430,190 425,185 C420,180 415,175 410,170 C405,165 400,160 395,155 
           C390,150 385,145 390,140 C395,135 400,130 405,135 C410,140 410,140 410,140z" 
        fill="#1E293B" stroke="#334155" stroke-width="1.5" stroke-linejoin="round" />
  
  <!-- Asia -->
  <path d="M485,40 C485,40 490,35 495,30 C500,25 505,20 510,25 C515,30 520,35 525,40 
           C530,45 535,50 540,55 C545,60 550,65 555,70 C560,75 565,80 570,85 
           C575,90 580,95 585,100 C590,105 595,110 600,115 C605,120 610,125 615,130 
           C620,135 625,140 630,145 C635,150 640,155 645,160 C650,165 655,170 660,175 
           C665,180 670,185 675,190 C680,195 685,200 690,205 C695,210 700,215 705,220 
           C710,225 715,230 710,235 C705,240 700,245 695,240 C690,235 685,230 680,225 
           C675,220 670,215 665,210 C660,205 655,200 650,195 C645,190 640,185 635,180 
           C630,175 625,170 620,165 C615,160 610,155 605,150 C600,145 595,140 590,135 
           C585,130 580,125 575,120 C570,115 565,110 560,105 C555,100 550,95 545,90 
           C540,85 535,80 530,75 C525,70 520,65 515,60 C510,55 505,50 500,45 C495,40 490,35 485,40z" 
        fill="#1E293B" stroke="#334155" stroke-width="1.5" stroke-linejoin="round" />
  
  <!-- Australia -->
  <path d="M650,240 C650,240 655,235 660,230 C665,225 670,220 675,225 C680,230 685,235 690,240 
           C695,245 700,250 705,255 C710,260 715,265 720,270 C725,275 730,280 735,285 
           C740,290 745,295 750,300 C755,305 760,310 755,315 C750,320 745,325 740,320 
           C735,315 730,310 725,305 C720,300 715,295 710,290 C705,285 700,280 695,275 
           C690,270 685,265 680,260 C675,255 670,250 665,245 C660,240 655,235 650,240z" 
        fill="#1E293B" stroke="#334155" stroke-width="1.5" stroke-linejoin="round" />
  
  <!-- Antarctica -->
  <path d="M100,380 Q150,375 200,370 Q250,365 300,360 Q350,355 400,350 Q450,345 500,350 Q550,355 600,360 Q650,365 700,370" 
        fill="none" stroke="#334155" stroke-width="1.5" stroke-linejoin="round" />
  
  <!-- Major Islands -->
  
  <!-- Greenland -->
  <path d="M320,40 C320,40 325,35 330,30 C335,25 340,20 345,25 C350,30 355,35 360,40 
           C365,45 370,50 375,55 C380,60 385,65 380,70 C375,75 370,80 365,75 
           C360,70 355,65 350,60 C345,55 340,50 335,45 C330,40 325,35 320,40z" 
        fill="#1E293B" stroke="#334155" stroke-width="1.5" stroke-linejoin="round" />
  
  <!-- UK -->
  <path d="M370,80 C370,80 372,78 374,76 C376,74 378,72 380,74 C382,76 384,78 386,80 
           C388,82 390,84 388,86 C386,88 384,90 382,88 C380,86 378,84 376,82 C374,80 372,78 370,80z" 
        fill="#1E293B" stroke="#334155" stroke-width="1.5" stroke-linejoin="round" />
  
  <!-- Japan -->
  <path d="M680,120 C680,120 682,118 684,116 C686,114 688,112 690,114 C692,116 694,118 696,120 
           C698,122 700,124 702,126 C704,128 706,130 704,132 C702,134 700,136 698,134 
           C696,132 694,130 692,128 C690,126 688,124 686,122 C684,120 682,118 680,120z" 
        fill="#1E293B" stroke="#334155" stroke-width="1.5" stroke-linejoin="round" />
  
  <!-- Indonesia -->
  <path d="M620,220 C620,220 625,218 630,216 C635,214 640,212 645,214 C650,216 655,218 660,220 
           C665,222 670,224 665,226 C660,228 655,230 650,228 C645,226 640,224 635,222 C630,220 625,218 620,220z" 
        fill="#1E293B" stroke="#334155" stroke-width="1.5" stroke-linejoin="round" />
  
  <!-- New Zealand -->
  <path d="M740,320 C740,320 742,318 744,316 C746,314 748,312 750,314 C752,316 754,318 756,320 
           C758,322 760,324 758,326 C756,328 754,330 752,328 C750,326 748,324 746,322 C744,320 742,318 740,320z" 
        fill="#1E293B" stroke="#334155" stroke-width="1.5" stroke-linejoin="round" />
  
  <!-- Madagascar -->
  <path d="M520,260 C520,260 522,258 524,256 C526,254 528,252 530,254 C532,256 534,258 536,260 
           C538,262 540,264 538,266 C536,268 534,270 532,268 C530,266 528,264 526,262 C524,260 522,258 520,260z" 
        fill="#1E293B" stroke="#334155" stroke-width="1.5" stroke-linejoin="round" />
  
  <!-- Iceland -->
  <path d="M350,60 C350,60 352,58 354,56 C356,54 358,52 360,54 C362,56 364,58 366,60 
           C368,62 370,64 368,66 C366,68 364,70 362,68 C360,66 358,64 356,62 C354,60 352,58 350,60z" 
        fill="#1E293B" stroke="#334155" stroke-width="1.5" stroke-linejoin="round" />
  
  <!-- Glow effects for continents -->
  <g filter="url(#glow)">
    <path d="M60,40 C60,40 70,35 80,38 C90,41 95,50 105,55 C115,60 125,65 130,75 C135,85 140,95 145,105 
             C150,115 155,125 160,130 C165,135 170,140 175,145 C180,150 185,155 190,160 
             C195,165 200,170 195,175 C190,180 185,185 180,190 C175,195 170,200 165,195 
             C160,190 155,185 150,180 C145,175 140,170 135,165 C130,160 125,155 120,150 
             C115,145 110,140 105,135 C100,130 95,125 90,120 C85,115 80,110 75,105 
             C70,100 65,95 60,90 C55,85 50,80 45,75 C40,70 35,65 40,60 C45,55 50,50 55,45 C60,40 60,40 60,40z" 
          fill="#1E293B" opacity="0.3" />
  </g>
  
  <!-- Country markers for Mongolia and other key countries -->
  
  <!-- Mongolia -->
  <circle cx="580" cy="110" r="3" fill="#3B82F6" />
  <text x="585" y="110" font-family="Arial" font-size="8" fill="#94A3B8">Mongolia</text>
  
  <!-- USA -->
  <circle cx="150" cy="120" r="3" fill="#3B82F6" />
  <text x="155" y="120" font-family="Arial" font-size="8" fill="#94A3B8">USA</text>
  
  <!-- Russia -->
  <circle cx="500" cy="80" r="3" fill="#3B82F6" />
  <text x="505" y="80" font-family="Arial" font-size="8" fill="#94A3B8">Russia</text>
  
  <!-- China -->
  <circle cx="600" cy="150" r="3" fill="#3B82F6" />
  <text x="605" y="150" font-family="Arial" font-size="8" fill="#94A3B8">China</text>
  
  <!-- Germany -->
  <circle cx="420" cy="90" r="3" fill="#3B82F6" />
  <text x="425" y="90" font-family="Arial" font-size="8" fill="#94A3B8">Germany</text>
  
  <!-- Brazil -->
  <circle cx="250" cy="300" r="3" fill="#3B82F6" />
  <text x="255" y="300" font-family="Arial" font-size="8" fill="#94A3B8">Brazil</text>
  
  <!-- Australia -->
  <circle cx="680" cy="280" r="3" fill="#3B82F6" />
  <text x="685" y="280" font-family="Arial" font-size="8" fill="#94A3B8">Australia</text>
  
  <!-- Filters -->
  <defs>
    <filter id="glow" x="-20%" y="-20%" width="140%" height="140%">
      <feGaussianBlur stdDeviation="5" result="blur" />
      <feComposite in="SourceGraphic" in2="blur" operator="over" />
    </filter>
  </defs>
  
  <!-- Ocean gradient -->
  <rect width="800" height="400" fill="url(#oceanGradient)" opacity="0.1" />
  
  <defs>
    <linearGradient id="oceanGradient" x1="0%" y1="0%" x2="100%" y2="100%">
      <stop offset="0%" stop-color="#0F172A" />
      <stop offset="50%" stop-color="#1E3A8A" />
      <stop offset="100%" stop-color="#0F172A" />
    </linearGradient>
  </defs>
</svg>
